<svg viewBox="0 0 600 768" xmlns="http://www.w3.org/2000/svg" fill-rule="evenodd" clip-rule="evenodd" stroke-linejoin="round" stroke-miterlimit="2">
  <!-- Blood drop (red) -->
  <path d="M243.352 550.031c50.288-28.652 90.675-52.875 122.717-95.23 19.856-26.248 31.06-55.256 31.06-86.52.004-25.63-5.144-47.024-17.221-71.555-11.914-24.197-25.822-43.007-58.692-79.366-8.183-9.05-18.667-20.658-23.302-25.789-42.979-47.606-71.552-91.238-83.53-127.552-.361-1.093-1.266.672-3.208 6.242-5.55 15.93-19.134 41.072-32.501 60.158-16.615 23.712-34.59 44.23-63.729 72.726-54.862 53.658-63.31 62.779-76.125 82.18-12.467 18.874-20.125 36.94-24.708 58.28-1.502 6.984-1.76 10.665-1.805 25.462-.062 21.062 1.646 31.883 8.042 50.893 1.27 3.777 2.056 6.71 1.753 6.52-1.27-.786-11.119-21.836-13.617-29.105C2.388 379.638-.037 364.926 0 345.882c.086-44.566 22.013-89.103 68.14-138.404 4.247-4.543 17.508-18.34 29.466-30.666 32.608-33.608 48.17-51.034 62.152-69.59 26.896-35.691 42.11-66.231 51.832-104.04.716-2.79 1.163-3.346 2.527-3.146 1.392.209 1.998 1.557 3.82 8.503 10.489 39.959 34.963 80.581 75.328 125.025 10.972 12.081 15.325 16.705 41.482 44.041 13.032 13.618 27.669 29.184 32.53 34.591 34.655 38.537 53.76 71.506 63.168 109.003 4.955 19.757 5.64 25.794 5.61 49.441-.024 20.137-.138 21.758-2.198 31.453-8.482 39.918-29.457 74.812-62.222 100.169C337.084 529 300.84 541.6 243.352 550.032z" fill="#e3171a" transform="translate(81.5, 0)"/>
  <!-- Heart (blue) -->
  <path d="M210.091 566.48c-.699 7.63.914 14.632.596 14.579-.047-.011-1.709-2.915-3.687-6.455-12.498-22.343-28.04-37.704-69.562-68.762-35.873-26.829-53.553-43.263-69.701-64.779-14.13-18.829-22.238-35.844-26.796-56.244-2.334-10.424-2.33-28.274 0-38.78 4.2-18.904 12.717-34.363 25.853-46.91 7.325-7.001 12.504-10.533 22.463-15.323 17.015-8.18 38.224-10.864 56.503-7.151 15.516 3.15 31.2 11.94 43.844 24.571 8.073 8.062 15.174 17.865 23.012 31.756 1.021 1.81 2.076 3.28 2.347 3.261.271-.021 2.832-3.21 5.692-7.09 18.573-25.193 41.334-40.308 65.585-43.551 7.357-.987 20.884-.452 27.172 1.069 31.906 7.711 52.88 36.234 52.87 71.905-.004 15.769-3.309 29.06-10.839 43.58-5.769 11.125-12.006 19.375-23.138 30.592-11.988 12.086-17.723 16.68-40.568 32.5-20.693 14.328-28.107 19.937-37.784 28.588-13.768 12.305-25.565 28.053-33.464 42.782-8.782 16.374-10.25 28.243-10.398 29.861z" fill="#012374" transform="translate(81.5, 0)"/>
  <!-- Wordmark: original paths scaled and positioned -->
  <g transform="translate(50.0, 606) scale(0.439367)">
    <path fill="#012374" opacity="1" stroke="none" 
	d="
M189.904724,33.286095 
	C190.379395,33.262749 190.854065,33.239410 191.789642,33.702766 
	C196.483200,34.841148 200.715851,35.492828 204.948502,36.144508 
	C205.430023,36.162491 205.911560,36.180473 206.750427,36.654991 
	C207.723709,37.120766 208.339630,37.130005 208.955551,37.139244 
	C210.415054,37.487026 211.874557,37.834812 213.748840,38.670559 
	C214.863800,40.712547 215.563980,42.266579 216.387634,44.094643 
	C218.138092,43.296623 219.882111,42.501545 221.626114,41.706470 
	C228.268631,45.475853 234.911148,49.245235 241.368164,53.487114 
	C241.017105,55.273891 240.461243,56.727318 240.858307,57.840984 
	C241.043777,58.361187 243.071075,58.333260 244.266556,58.350746 
	C245.237381,58.364944 246.212662,58.076157 247.185959,57.921738 
	C248.088623,58.712193 248.991287,59.502647 249.972870,60.894585 
	C250.588287,61.999939 251.124756,62.503815 251.661224,63.007690 
	C251.661224,63.007694 252.049820,63.320332 252.035522,63.902588 
	C252.514160,65.328094 253.007065,66.171341 253.499969,67.014595 
	C253.672684,67.451759 253.845383,67.888924 253.703583,68.922943 
	C250.398651,73.429138 247.422760,77.349846 244.392593,81.228142 
	C244.124451,81.571358 243.514572,81.768318 243.042572,81.813011 
	C237.832977,82.306274 232.619247,82.755898 227.406647,83.217346 
	C225.635162,81.842690 223.863663,80.468033 221.998291,78.415436 
	C221.532730,71.846664 217.748245,72.155403 213.582642,73.156433 
	C211.553574,72.201744 209.524521,71.247055 207.253525,69.680695 
	C205.850647,65.179008 200.761688,60.656429 197.571976,61.157936 
	C193.701523,61.766476 189.909225,62.872143 186.083115,63.762726 
	C185.611145,63.799965 185.139191,63.837200 184.218796,63.381084 
	C178.453659,61.604752 173.177948,60.073986 167.796326,59.183090 
	C166.083145,58.899490 163.849701,59.973934 162.292969,61.057285 
	C160.878693,62.041500 160.060364,63.882084 158.979309,65.345139 
	C144.684586,69.659256 132.131973,76.655624 121.978218,87.929726 
	C93.721542,119.304138 96.335564,172.847000 127.874130,201.075653 
	C128.798813,202.104111 129.522278,202.496796 130.245758,202.889481 
	C132.039185,204.103165 133.832626,205.316833 135.858429,207.167358 
	C137.588409,208.448196 139.086029,209.092163 140.583649,209.736130 
	C164.468018,221.661758 198.239487,221.118530 223.643082,200.560699 
	C224.806488,199.619202 225.951080,198.654434 227.101501,197.696976 
	C234.688522,191.382599 243.324844,191.522629 249.363480,198.059052 
	C255.654617,204.868790 255.421722,215.320465 248.323044,221.821609 
	C235.206421,233.834106 219.928131,241.979950 202.599640,246.180359 
	C201.630142,246.415375 200.650894,246.610199 199.119019,246.583038 
	C198.037384,246.580261 197.512939,246.818192 196.988495,247.056122 
	C196.416611,247.230286 195.844727,247.404434 194.605743,247.294388 
	C187.825394,242.924881 180.949417,243.146179 173.956100,242.813843 
	C167.812012,242.521881 163.377380,246.084274 158.109283,247.678177 
	C157.313049,247.637650 156.516815,247.597137 155.185394,247.068237 
	C153.529160,246.485489 152.408096,246.391129 151.287033,246.296753 
	C150.391098,246.241089 149.495163,246.185440 148.255066,245.612671 
	C144.635742,242.744797 141.374725,240.373596 138.062973,238.075546 
	C137.740280,237.851624 137.100296,238.043869 136.614792,238.102524 
	C134.014618,238.416595 131.416718,238.749557 128.818039,239.076004 
	C128.818039,239.076004 128.357666,239.085159 128.086670,238.579681 
	C126.949669,237.843506 126.083679,237.612778 125.217682,237.382065 
	C104.280869,227.926300 89.798874,211.966583 79.664879,191.775772 
	C60.149197,152.893021 65.841881,103.438499 94.028938,71.096832 
	C95.078537,70.182152 95.487434,69.462288 95.896339,68.742424 
	C96.611145,67.844734 97.325951,66.947044 98.708405,65.964439 
	C100.197960,64.780525 101.019875,63.681534 101.841782,62.582542 
	C102.614014,61.735256 103.386253,60.887974 104.793243,59.965103 
	C105.929344,59.223907 106.430687,58.558292 106.932030,57.892673 
	C106.932030,57.892673 106.974121,57.982811 107.254105,57.952629 
	C108.038864,57.333954 108.543625,56.745457 109.048386,56.156967 
	C110.735352,54.781147 112.422310,53.405327 114.751099,51.981186 
	C115.932396,51.397171 116.471863,50.861477 117.011330,50.325779 
	C119.314499,48.851215 121.617668,47.376652 124.574356,45.913368 
	C125.824699,45.461052 126.421516,44.997459 127.018326,44.533863 
	C129.560638,43.265678 132.102936,41.997498 135.415619,40.799133 
	C140.797012,39.195011 145.408020,37.521069 150.019028,35.847130 
	C150.471573,35.639534 150.924118,35.431938 152.040039,35.502251 
	C156.744263,35.209183 160.796127,34.705177 164.821808,34.042156 
	C167.241943,33.643570 169.621262,32.997128 172.018921,32.462074 
	C175.045868,32.394608 178.072800,32.327141 181.666565,32.703964 
	C184.790482,33.194199 187.347610,33.240147 189.904724,33.286095 
z"/>
    <path fill="#012374" opacity="1" stroke="none" 
	d="
M317.632172,234.019058 
	C317.633362,235.100525 317.634552,236.182007 317.109497,237.730011 
	C316.112244,239.602921 315.641235,241.009293 315.170227,242.415649 
	C313.888184,243.714996 312.606110,245.014313 310.647400,246.173782 
	C301.760254,240.372238 299.348541,240.606232 295.836945,247.405243 
	C290.424866,244.082443 286.626862,240.204559 286.651031,232.942474 
	C286.858856,170.521591 286.758911,108.099747 286.821960,45.678261 
	C286.830963,36.769211 292.253906,31.172884 300.821899,30.714823 
	C310.668335,30.188414 316.445557,34.761761 317.306030,44.737118 
	C316.519135,46.224056 316.038879,47.156647 316.037140,48.090134 
	C315.993317,71.526543 315.974457,94.963135 316.069305,118.399239 
	C316.074249,119.624306 317.122162,120.845146 317.684540,122.067963 
	C318.585297,121.430984 319.670959,120.950111 320.359650,120.134163 
	C336.164307,101.409515 361.874847,94.879471 384.245911,104.603043 
	C399.621216,111.285919 407.438202,124.127975 410.116669,140.201126 
	C411.124207,146.247208 411.416321,152.462555 411.479401,158.606415 
	C411.655701,175.770142 411.514526,192.936920 411.572906,210.102249 
	C411.581329,212.584244 411.636444,215.167847 412.307098,217.522980 
	C413.430847,221.469070 416.355255,223.465790 420.352844,221.930344 
	C424.921387,220.175644 429.084351,219.398392 432.586487,223.656342 
	C435.726288,227.473740 435.886627,235.180222 433.018951,239.776505 
	C432.321259,240.894836 431.458862,241.956726 430.496490,242.856613 
	C417.250549,255.242310 390.052124,249.789368 383.610199,233.036224 
	C381.397400,227.281540 380.522125,220.735962 380.366943,214.518478 
	C379.901337,195.865250 380.571533,177.178024 379.886566,158.537582 
	C379.261719,141.532211 372.343353,132.973190 358.645508,129.843430 
	C344.692078,126.655266 329.919098,133.418839 322.612610,146.357071 
	C322.040314,147.370529 321.569672,148.441422 320.671631,149.906860 
	C320.107147,150.563721 320.032501,150.830109 320.067444,151.127243 
	C320.016846,151.557373 319.966248,151.987503 319.409882,152.707901 
	C317.941956,155.992279 316.247253,158.962814 316.149994,161.984741 
	C315.808685,172.592773 315.957855,183.219208 316.088287,193.836594 
	C316.105499,195.236176 317.092316,196.623825 317.630066,198.016998 
	C317.716431,202.374435 317.802765,206.731888 317.398621,211.668304 
	C316.621826,212.810318 316.129150,213.356705 316.082153,213.939056 
	C315.743835,218.132324 317.292877,222.751877 312.768463,225.953140 
	C312.217194,226.343201 312.729156,229.099457 313.494843,230.271439 
	C314.479370,231.778427 316.218231,232.792603 317.632172,234.019058 
z"/>
    <path fill="#012374" opacity="1" stroke="none" 
	d="
M951.013672,133.917053 
	C949.979736,134.799423 949.213013,135.441528 948.488525,136.128128 
	C941.958435,142.316589 935.554382,142.588058 929.579285,136.919540 
	C924.105896,131.727005 923.638977,122.089661 929.226929,116.647049 
	C932.632935,113.329529 936.720215,110.458160 940.965698,108.299347 
	C960.061951,98.589073 980.250549,96.719734 1000.749329,102.328659 
	C1023.542603,108.565392 1035.794922,125.220741 1036.092163,149.142258 
	C1036.353027,170.135223 1036.256226,191.132523 1036.355591,212.127731 
	C1036.364990,214.117447 1036.414917,216.158920 1036.855103,218.082764 
	C1037.553955,221.136658 1039.531128,222.482925 1042.791992,221.818848 
	C1051.423096,220.061188 1054.004517,220.897736 1056.182617,225.974380 
	C1058.968384,232.467056 1057.100708,240.302948 1051.880371,244.023193 
	C1038.771240,253.365356 1018.668091,249.910004 1009.873108,236.694534 
	C1008.742065,234.995071 1008.263611,232.861343 1007.207825,230.248016 
	C1005.714600,231.333008 1004.100891,232.097443 1003.041870,233.336151 
	C986.660217,252.497223 948.764771,253.959824 930.862000,240.849548 
	C908.622498,224.563354 908.711487,190.477676 931.068787,173.035370 
	C941.848083,164.625793 954.485352,160.885178 967.734009,159.964859 
	C979.960144,159.115570 992.291809,159.784103 1004.813416,159.784103 
	C1008.975891,143.499512 999.647583,129.206299 982.286804,126.966454 
	C971.242432,125.541534 960.663818,127.014549 951.013672,133.917053 
M965.858093,182.121765 
	C961.359985,184.509735 956.220581,186.162704 952.483704,189.423218 
	C941.190369,199.277008 944.735107,216.837967 958.690430,222.162628 
	C983.337280,231.566666 1008.861023,211.386932 1005.129089,185.295410 
	C1004.946594,184.019348 1002.780640,182.334473 1001.302856,182.046082 
	C989.788147,179.799286 978.215881,179.209320 965.858093,182.121765 
z"/>
    <path fill="#012374" opacity="1" stroke="none" 
	d="
M594.411987,240.071823 
	C587.017822,248.531601 577.147217,249.720047 566.979492,248.570618 
	C555.960083,247.324905 549.499390,240.401291 547.000732,227.974014 
	C544.570190,230.826385 543.132263,232.787994 541.424011,234.476059 
	C524.853027,250.851700 493.447205,254.454163 473.558594,242.314209 
	C449.208923,227.451279 448.486908,189.136475 472.256317,171.976868 
	C482.544128,164.549911 494.294464,160.644043 506.737701,159.982132 
	C518.151184,159.374985 529.648804,160.353806 541.109497,160.628235 
	C542.065063,160.651123 543.021667,160.631241 543.938110,160.631241 
	C547.574280,141.450256 538.135376,128.441254 519.163452,126.774529 
	C506.977081,125.703941 495.623138,127.789856 486.445862,136.968704 
	C482.109100,141.306198 477.420258,141.962708 472.756653,139.637482 
	C467.453705,136.993484 463.792969,131.498489 465.047882,125.775200 
	C465.918457,121.804893 467.911285,117.334351 470.845062,114.683846 
	C489.928284,97.443214 531.511169,94.477509 553.429565,108.127724 
	C563.397766,114.335670 569.998901,122.869347 573.118042,134.864670 
	C573.486694,136.366165 573.815918,137.171051 574.145081,137.975952 
	C574.197876,138.702744 574.250732,139.429535 574.286804,140.902161 
	C574.581421,143.419952 574.892822,145.191895 575.204224,146.963837 
	C575.280579,170.294693 575.356934,193.625565 575.431519,217.684586 
	C575.857849,219.066772 576.286011,219.720779 576.714111,220.374786 
	C577.273499,220.913773 577.832886,221.452759 578.916382,222.223114 
	C580.954590,221.933121 582.468689,221.411789 583.982727,220.890472 
	C585.710999,220.831940 587.439209,220.773407 589.764526,221.007446 
	C590.927551,221.483566 591.493591,221.667160 592.059631,221.850739 
	C596.029175,225.475906 596.507385,230.156586 595.814209,235.744507 
	C595.459656,236.946396 595.360352,237.517960 595.261108,238.089539 
	C595.261108,238.089539 595.053284,238.521194 594.822144,238.869812 
	C594.330139,239.460724 594.270447,239.745178 594.411987,240.071823 
M491.810852,189.321091 
	C485.868835,195.522385 484.021606,202.851791 486.681549,210.935928 
	C489.304230,218.906738 495.679871,222.462662 503.590271,223.788040 
	C527.949036,227.869339 546.878601,210.342987 544.635254,185.552231 
	C544.517944,184.256439 542.440369,182.212936 541.136780,182.098694 
	C532.223267,181.317612 523.265625,180.477066 514.336121,180.607788 
	C506.236572,180.726379 498.640839,183.328018 491.810852,189.321091 
z"/>
    <path fill="#012374" opacity="1" stroke="none" 
	d="
M820.529541,215.423584 
	C820.387634,188.831085 820.305481,162.684723 820.224670,136.538361 
	C820.219116,134.742554 820.223999,132.946716 820.223999,130.645844 
	C815.372009,130.645844 810.938232,130.677155 806.505005,130.639023 
	C798.397949,130.569305 793.297729,125.522644 793.287903,117.612129 
	C793.278137,109.834770 798.534973,104.272301 806.248352,104.064209 
	C810.699951,103.944107 815.157349,104.042397 820.237488,104.042397 
	C820.237488,93.298569 820.153992,83.024323 820.261414,72.752083 
	C820.364685,62.884449 826.555054,56.899750 836.337952,56.962234 
	C845.485718,57.020664 851.293213,62.663979 851.435974,71.946960 
	C851.571716,80.772064 851.448975,89.601143 851.440552,98.428474 
	C851.438965,100.063492 851.440308,101.698509 851.440308,104.082947 
	C861.825989,104.082947 871.764465,103.996880 881.700745,104.110687 
	C889.386597,104.198723 894.441772,109.422318 894.567078,117.091293 
	C894.693970,124.856789 889.476135,130.422119 881.617310,130.534744 
	C871.827820,130.675034 862.034729,130.568420 851.898560,130.568420 
	C851.756897,132.486542 851.562378,133.921219 851.558228,135.356461 
	C851.493225,157.674683 851.445190,179.992950 851.421387,202.311264 
	C851.419434,204.138657 851.540283,205.975403 851.742798,207.792328 
	C853.106445,220.027283 862.626221,225.261810 873.705627,219.894180 
	C874.155090,219.676407 874.599548,219.447174 875.037781,219.207458 
	C883.093018,214.800766 887.533630,215.118790 891.282104,220.374008 
	C895.674866,226.532440 895.192261,235.699829 889.394226,240.357437 
	C885.732910,243.298645 881.236633,245.600708 876.745728,247.028076 
	C866.533203,250.273956 855.954407,250.333313 845.702942,247.333496 
	C830.166321,242.787094 822.493774,231.522278 820.529541,215.423584 
z"/>
    <path fill="#012374" opacity="1" stroke="none" 
	d="
M628.373413,166.999969 
	C628.374268,154.726059 628.374268,142.952179 628.374268,130.621674 
	C623.293823,130.621674 618.681580,130.650436 614.069946,130.615326 
	C605.990784,130.553818 600.885437,125.507530 600.856750,117.604095 
	C600.827576,109.573280 606.168579,104.141594 614.260071,104.044449 
	C618.721802,103.990875 623.184814,104.034859 628.355042,104.034859 
	C628.355042,97.691467 628.349731,91.765282 628.356750,85.839111 
	C628.362244,81.174644 628.207703,76.501678 628.433655,71.847511 
	C628.896301,62.319778 635.142029,56.734131 644.832886,56.931549 
	C653.600708,57.110157 659.527283,63.198757 659.615967,72.388481 
	C659.701111,81.216530 659.769165,90.054085 659.444397,98.872719 
	C659.286987,103.146622 660.828125,104.255836 664.888306,104.124237 
	C673.041870,103.859947 681.212891,103.992508 689.373718,104.133316 
	C697.757263,104.277962 702.834961,109.557106 702.644958,117.666183 
	C702.459473,125.577553 697.377686,130.499283 689.172302,130.551910 
	C679.546265,130.613663 669.919495,130.566376 659.553711,130.566376 
	C659.553711,132.777069 659.553467,134.535217 659.553772,136.293365 
	C659.557373,158.616776 659.549622,180.940216 659.582642,203.263580 
	C659.585815,205.422073 659.661194,207.609909 660.010803,209.733414 
	C661.601562,219.394501 669.535828,224.139679 678.829468,221.030884 
	C680.239014,220.559357 681.616333,219.917694 682.907471,219.178207 
	C690.270691,214.960983 695.576843,215.265411 699.345642,220.192200 
	C703.457031,225.567047 703.210938,235.812408 697.657349,239.802643 
	C692.533508,243.484116 686.421875,246.711151 680.315308,247.867950 
	C672.953003,249.262604 664.909790,249.460632 657.561890,248.065842 
	C638.536621,244.454453 628.603699,230.571686 628.393555,208.981110 
	C628.258972,195.155304 628.371033,181.327103 628.373413,166.999969 
M656.998657,158.500000 
	C656.998657,174.226959 656.998657,189.953903 656.998657,205.680862 
	C657.235168,205.676895 657.471741,205.672943 657.708252,205.668976 
	C657.708252,181.155441 657.708252,156.641907 657.708252,132.128357 
	C657.471924,132.126999 657.235657,132.125626 656.999329,132.124268 
	C656.999329,140.582840 656.999329,149.041428 656.998657,158.500000 
z"/>
    <path fill="#012374" opacity="1" stroke="none" 
	d="
M736.661743,236.983215 
	C736.455994,235.690338 736.070740,234.397476 736.070801,233.104614 
	C736.071411,194.038315 736.109985,154.972046 736.646729,115.397583 
	C742.810974,114.112770 742.048584,109.384453 742.853882,105.620697 
	C743.446899,105.181587 744.039917,104.742470 745.162903,104.120949 
	C746.779297,103.577248 747.865723,103.215942 748.952148,102.854630 
	C750.376221,102.913597 751.800293,102.972565 753.916870,103.129456 
	C756.412476,103.725273 758.215576,104.223190 760.018738,104.721100 
	C761.968750,106.765152 763.918762,108.809227 766.111084,111.404526 
	C766.504456,112.648117 766.655396,113.340462 766.562866,114.357948 
	C766.266663,148.327805 766.268433,181.972763 766.123657,215.617081 
	C766.086731,224.200989 765.585449,232.782883 765.297546,241.365723 
	C764.016479,242.877457 762.735413,244.389191 760.924561,246.113770 
	C759.827942,246.546234 759.261047,246.765854 758.359680,246.917694 
	C752.116333,243.296219 746.422913,238.877136 738.833801,242.071320 
	C738.397156,241.499374 737.960449,240.927414 737.661621,239.745331 
	C737.420227,238.417847 737.040955,237.700531 736.661743,236.983215 
z"/>
    <path fill="#012374" opacity="1" stroke="none" 
	d="
M740.373413,70.713844 
	C732.399902,63.082344 730.727173,53.536972 735.665833,45.269855 
	C740.251892,37.593029 749.829407,34.225334 758.724304,37.396049 
	C765.971558,39.979435 770.206970,45.364128 770.979736,52.915779 
	C771.754456,60.486946 769.440063,67.118942 762.617126,71.354004 
	C755.275085,75.911263 747.888428,75.880783 740.373413,70.713844 
z"/>
    <path fill="#012374" opacity="1" stroke="none" 
	d="
M158.428329,247.911789 
	C163.377380,246.084274 167.812012,242.521881 173.956100,242.813843 
	C180.949417,243.146179 187.825394,242.924881 194.315735,247.198639 
	C182.769409,250.408813 170.767075,249.688309 158.428329,247.911789 
z"/>
    <path fill="#012374" opacity="1" stroke="none" 
	d="
M227.551361,83.543846 
	C232.619247,82.755898 237.832977,82.306274 243.042572,81.813011 
	C243.514572,81.768318 244.124451,81.571358 244.392593,81.228142 
	C247.422760,77.349846 250.398651,73.429138 253.645187,69.277939 
	C255.134689,76.622330 252.364868,83.050835 246.402283,86.440521 
	C240.331131,89.891937 233.380432,88.936935 227.551361,83.543846 
z"/>
    <path fill="#012374" opacity="1" stroke="none" 
	d="
M317.792725,121.605652 
	C317.122162,120.845146 316.074249,119.624306 316.069305,118.399239 
	C315.974457,94.963135 315.993317,71.526543 316.037140,48.090134 
	C316.038879,47.156647 316.519135,46.224056 317.158508,45.035553 
	C317.674377,61.579063 317.834869,78.377907 317.930786,95.177124 
	C317.980194,103.832191 317.914581,112.487915 317.792725,121.605652 
z"/>
    <path fill="#012374" opacity="1" stroke="none" 
	d="
M738.884888,242.411072 
	C746.422913,238.877136 752.116333,243.296219 758.334778,247.130890 
	C758.644348,247.411865 758.582886,247.836929 758.582886,247.836929 
	C758.101501,247.922882 757.620178,248.008820 756.530762,248.268799 
	C752.963379,248.530151 750.004028,248.617477 747.044678,248.704803 
	C744.341797,246.720154 741.638916,244.735489 738.884888,242.411072 
z"/>
    <path fill="#012374" opacity="1" stroke="none" 
	d="
M317.781250,197.568909 
	C317.092316,196.623825 316.105499,195.236176 316.088287,193.836594 
	C315.957855,183.219208 315.808685,172.592773 316.149994,161.984741 
	C316.247253,158.962814 317.941956,155.992279 319.239319,152.988190 
	C319.027191,167.692429 318.479828,182.406631 317.781250,197.568909 
z"/>
    <path fill="#012374" opacity="1" stroke="none" 
	d="
M159.374969,65.384850 
	C160.060364,63.882084 160.878693,62.041500 162.292969,61.057285 
	C163.849701,59.973934 166.083145,58.899490 167.796326,59.183090 
	C173.177948,60.073986 178.453659,61.604752 183.891098,63.232201 
	C175.931427,64.192627 167.851044,64.808594 159.374969,65.384850 
z"/>
    <path fill="#012374" opacity="1" stroke="none" 
	d="
M186.404999,63.958393 
	C189.909225,62.872143 193.701523,61.766476 197.571976,61.157936 
	C200.761688,60.656429 205.850647,65.179008 207.008575,69.440979 
	C200.246002,67.926643 193.486435,66.040352 186.404999,63.958393 
z"/>
    <path fill="#012374" opacity="1" stroke="none" 
	d="
M296.078979,247.684631 
	C299.348541,240.606232 301.760254,240.372238 310.337280,246.217422 
	C306.243652,249.996140 301.321045,249.336288 296.078979,247.684631 
z"/>
    <path fill="#012374" opacity="1" stroke="none" 
	d="
M317.786682,233.628876 
	C316.218231,232.792603 314.479370,231.778427 313.494843,230.271439 
	C312.729156,229.099457 312.217194,226.343201 312.768463,225.953140 
	C317.292877,222.751877 315.743835,218.132324 316.082153,213.939056 
	C316.129150,213.356705 316.621826,212.810318 317.266846,212.114990 
	C317.730743,219.068039 317.835968,226.153366 317.786682,233.628876 
z"/>
    <path fill="#012374" opacity="1" stroke="none" 
	d="
M129.020538,239.362320 
	C131.416718,238.749557 134.014618,238.416595 136.614792,238.102524 
	C137.100296,238.043869 137.740280,237.851624 138.062973,238.075546 
	C141.374725,240.373596 144.635742,242.744797 147.955597,245.448807 
	C141.741211,243.750900 135.482117,241.699768 129.020538,239.362320 
z"/>
    <path fill="#012374" opacity="1" stroke="none" 
	d="
M171.585541,32.358253 
	C169.621262,32.997128 167.241943,33.643570 164.821808,34.042156 
	C160.796127,34.705177 156.744263,35.209183 152.415787,35.557091 
	C158.469482,34.307499 164.810822,33.280968 171.585541,32.358253 
z"/>
    <path fill="#012374" opacity="1" stroke="none" 
	d="
M742.507935,105.681030 
	C742.048584,109.384453 742.810974,114.112770 736.809326,114.956421 
	C738.365906,111.929413 740.263977,108.835388 742.507935,105.681030 
z"/>
    <path fill="#012374" opacity="1" stroke="none" 
	d="
M213.768951,73.447784 
	C217.748245,72.155403 221.532730,71.846664 221.853851,78.142151 
	C219.187271,76.944237 216.571274,75.341690 213.768951,73.447784 
z"/>
    <path fill="#012374" opacity="1" stroke="none" 
	d="
M247.074158,57.617912 
	C246.212662,58.076157 245.237381,58.364944 244.266556,58.350746 
	C243.071075,58.333260 241.043777,58.361187 240.858307,57.840984 
	C240.461243,56.727318 241.017105,55.273891 241.572693,53.784172 
	C243.629242,54.843853 245.295792,56.078964 247.074158,57.617912 
z"/>
    <path fill="#012374" opacity="1" stroke="none" 
	d="
M221.409698,41.429653 
	C219.882111,42.501545 218.138092,43.296623 216.387634,44.094643 
	C215.563980,42.266579 214.863800,40.712547 214.071732,38.871208 
	C216.384323,39.440212 218.788818,40.296524 221.409698,41.429653 
z"/>
    <path fill="#012374" opacity="1" stroke="none" 
	d="
M204.653961,35.934315 
	C200.715851,35.492828 196.483200,34.841148 192.115997,33.858269 
	C196.107452,34.259422 200.233444,34.991772 204.653961,35.934315 
z"/>
    <path fill="#012374" opacity="1" stroke="none" 
	d="
M149.665131,35.770485 
	C145.408020,37.521069 140.797012,39.195011 135.763229,40.816422 
	C139.997375,39.073875 144.654312,37.383862 149.665131,35.770485 
z"/>
    <path fill="#012374" opacity="1" stroke="none" 
	d="
M189.577026,33.083412 
	C187.347610,33.240147 184.790482,33.194199 182.107773,32.814362 
	C184.404572,32.613888 186.826950,32.747311 189.577026,33.083412 
z"/>
    <path fill="#012374" opacity="1" stroke="none" 
	d="
M315.458099,242.257690 
	C315.641235,241.009293 316.112244,239.602921 316.891235,238.080963 
	C316.714813,239.343475 316.230377,240.721603 315.458099,242.257690 
z"/>
    <path fill="#012374" opacity="1" stroke="none" 
	d="
M140.396194,209.449570 
	C139.086029,209.092163 137.588409,208.448196 136.029419,207.444183 
	C137.381607,207.777100 138.795181,208.470047 140.396194,209.449570 
z"/>
    <path fill="#012374" opacity="1" stroke="none" 
	d="
M101.516907,62.684273 
	C101.019875,63.681534 100.197960,64.780525 98.982742,65.862518 
	C99.456970,64.825684 100.324501,63.805843 101.516907,62.684273 
z"/>
    <path fill="#012374" opacity="1" stroke="none" 
	d="
M151.519623,246.545258 
	C152.408096,246.391129 153.529160,246.485489 154.832550,246.870102 
	C153.927322,247.038162 152.839767,246.915970 151.519623,246.545258 
z"/>
    <path fill="#012374" opacity="1" stroke="none" 
	d="
M253.527374,66.709946 
	C253.007065,66.171341 252.514160,65.328094 252.054565,64.151230 
	C252.576859,64.680176 253.065826,65.542732 253.527374,66.709946 
z"/>
    <path fill="#012374" opacity="1" stroke="none" 
	d="
M125.419769,237.638916 
	C126.083679,237.612778 126.949669,237.843506 127.910263,238.431763 
	C127.210518,238.491470 126.416183,238.193619 125.419769,237.638916 
z"/>
    <path fill="#012374" opacity="1" stroke="none" 
	d="
M197.170441,247.182510 
	C197.512939,246.818192 198.037384,246.580261 198.727386,246.532852 
	C198.379425,246.918533 197.865906,247.113708 197.170441,247.182510 
z"/>
    <path fill="#012374" opacity="1" stroke="none" 
	d="
M208.750763,36.957199 
	C208.339630,37.130005 207.723709,37.120766 207.043518,36.876144 
	C207.501495,36.685562 208.023743,36.730358 208.750763,36.957199 
z"/>
    <path fill="#012374" opacity="1" stroke="none" 
	d="
M95.604233,68.850052 
	C95.487434,69.462288 95.078537,70.182152 94.328339,70.947922 
	C94.428741,70.315109 94.870430,69.636398 95.604233,68.850052 
z"/>
    <path fill="#012374" opacity="1" stroke="none" 
	d="
M736.575684,237.285172 
	C737.040955,237.700531 737.420227,238.417847 737.676758,239.465210 
	C737.199280,239.059189 736.844421,238.323151 736.575684,237.285172 
z"/>
    <path fill="#012374" opacity="1" stroke="none" 
	d="
M126.726028,44.510696 
	C126.421516,44.997459 125.824699,45.461052 124.911331,45.888176 
	C125.207771,45.396980 125.820755,44.942253 126.726028,44.510696 
z"/>
    <path fill="#012374" opacity="1" stroke="none" 
	d="
M116.717392,50.336342 
	C116.471863,50.861477 115.932396,51.397171 115.074524,51.918030 
	C115.311913,51.384430 115.867683,50.865665 116.717392,50.336342 
z"/>
    <path fill="#012374" opacity="1" stroke="none" 
	d="
M130.138824,202.599182 
	C129.522278,202.496796 128.798813,202.104111 128.031189,201.372498 
	C128.668671,201.458679 129.350281,201.883789 130.138824,202.599182 
z"/>
    <path fill="#012374" opacity="1" stroke="none" 
	d="
M108.752037,56.190029 
	C108.543625,56.745457 108.038864,57.333954 107.212509,57.925362 
	C107.412514,57.359882 107.934097,56.791489 108.752037,56.190029 
z"/>
    <path fill="#012374" opacity="1" stroke="none" 
	d="
M106.625854,57.962612 
	C106.430687,58.558292 105.929344,59.223907 105.075073,59.889923 
	C105.254662,59.271061 105.787170,58.651806 106.625854,57.962612 
z"/>
    <path fill="#012374" opacity="1" stroke="none" 
	d="
M251.659027,62.718575 
	C251.124756,62.503815 250.588287,61.999939 250.051712,61.189575 
	C250.586685,61.398548 251.121765,61.914001 251.659027,62.718575 
z"/>
    <path fill="#012374" opacity="1" stroke="none" 
	d="
M320.261902,151.016556 
	C320.032501,150.830109 320.107147,150.563721 320.459412,150.199768 
	C320.747681,150.385925 320.690704,150.664062 320.261902,151.016556 
z"/>
    <path fill="#012374" opacity="1" stroke="none" 
	d="
M656.999023,158.000000 
	C656.999329,149.041428 656.999329,140.582840 656.999329,132.124268 
	C657.235657,132.125626 657.471924,132.126999 657.708252,132.128357 
	C657.708252,156.641907 657.708252,181.155441 657.708252,205.668976 
	C657.471741,205.672943 657.235168,205.676895 656.998657,205.680862 
	C656.998657,189.953903 656.998657,174.226959 656.999023,158.000000 
z"/>
  </g>
</svg>