<svg viewBox="0 0 437 582" xmlns="http://www.w3.org/2000/svg" fill-rule="evenodd" clip-rule="evenodd"
    stroke-linejoin="round" stroke-miterlimit="2">
    <path
        d="M210.091 566.48c-.699 7.63.914 14.632.596 14.579-.047-.011-1.709-2.915-3.687-6.455-12.498-22.343-28.04-37.704-69.562-68.762-35.873-26.829-53.553-43.263-69.701-64.779-14.13-18.829-22.238-35.844-26.796-56.244-2.334-10.424-2.33-28.274 0-38.78 4.2-18.904 12.717-34.363 25.853-46.91 7.325-7.001 12.504-10.533 22.463-15.323 17.015-8.18 38.224-10.864 56.503-7.151 15.516 3.15 31.2 11.94 43.844 24.571 8.073 8.062 15.174 17.865 23.012 31.756 1.021 1.81 2.076 3.28 2.347 3.261.271-.021 2.832-3.21 5.692-7.09 18.573-25.193 41.334-40.308 65.585-43.551 7.357-.987 20.884-.452 27.172 1.069 31.906 7.711 52.88 36.234 52.87 71.905-.004 15.769-3.309 29.06-10.839 43.58-5.769 11.125-12.006 19.375-23.138 30.592-11.988 12.086-17.723 16.68-40.568 32.5-20.693 14.328-28.107 19.937-37.784 28.588-13.768 12.305-25.565 28.053-33.464 42.782-8.782 16.374-10.25 28.243-10.398 29.861z"
        fill="#012374" />
    <path
        d="M243.352 550.031c50.288-28.652 90.675-52.875 122.717-95.23 19.856-26.248 31.06-55.256 31.06-86.52.004-25.63-5.144-47.024-17.221-71.555-11.914-24.197-25.822-43.007-58.692-79.366-8.183-9.05-18.667-20.658-23.302-25.789-42.979-47.606-71.552-91.238-83.53-127.552-.361-1.093-1.266.672-3.208 6.242-5.55 15.93-19.134 41.072-32.501 60.158-16.615 23.712-34.59 44.23-63.729 72.726-54.862 53.658-63.31 62.779-76.125 82.18-12.467 18.874-20.125 36.94-24.708 58.28-1.502 6.984-1.76 10.665-1.805 25.462-.062 21.062 1.646 31.883 8.042 50.893 1.27 3.777 2.056 6.71 1.753 6.52-1.27-.786-11.119-21.836-13.617-29.105C2.388 379.638-.037 364.926 0 345.882c.086-44.566 22.013-89.103 68.14-138.404 4.247-4.543 17.508-18.34 29.466-30.666 32.608-33.608 48.17-51.034 62.152-69.59 26.896-35.691 42.11-66.231 51.832-104.04.716-2.79 1.163-3.346 2.527-3.146 1.392.209 1.998 1.557 3.82 8.503 10.489 39.959 34.963 80.581 75.328 125.025 10.972 12.081 15.325 16.705 41.482 44.041 13.032 13.618 27.669 29.184 32.53 34.591 34.655 38.537 53.76 71.506 63.168 109.003 4.955 19.757 5.64 25.794 5.61 49.441-.024 20.137-.138 21.758-2.198 31.453-8.482 39.918-29.457 74.812-62.222 100.169C337.084 529 300.84 541.6 243.352 550.032z"
        fill="#e3171a" />
</svg>